REM DIRINDEX 1\2,1\3,1\4\5,1\4\6
REM DIRNAME "folder01","folder02","folder03","folder04","folder05","folder06"
TITLE ""
FILE "Step2_Track58.mp3" MP3
  TRACK 01 AUDIO
    TITLE "0:"
    INDEX 01 00:00:00
  TRACK 02 AUDIO
    TITLE "6:cjc165_1198"
    INDEX 01 00:00:24
  TRACK 03 AUDIO
    TITLE "0:"
    INDEX 01 00:01:72
  TRACK 04 AUDIO
    TITLE "6:cjc165_1199"
    INDEX 01 00:02:52
  TRACK 05 AUDIO
    TITLE "0:"
    INDEX 01 00:04:04
  TRACK 06 AUDIO
    TITLE "5:cjc165_1200"
    INDEX 01 00:04:37
  TRACK 07 AUDIO
    TITLE "0:"
    INDEX 01 00:06:13
  TRACK 08 AUDIO
    TITLE "6:cjc165_1201"
    INDEX 01 00:06:64
  TRACK 09 AUDIO
    TITLE "0:"
    INDEX 01 00:08:14
  TRACK 10 AUDIO
    TITLE "5:cjc165_1202"
    INDEX 01 00:08:27
  TRACK 11 AUDIO
    TITLE "0:"
    INDEX 01 00:10:69
  TRACK 12 AUDIO
    TITLE "6:cjc165_1203"
    INDEX 01 00:11:39
  TRACK 13 AUDIO
    TITLE "0:"
    INDEX 01 00:13:03
  TRACK 14 AUDIO
    TITLE "5:cjc165_1204"
    INDEX 01 00:13:38
  TRACK 15 AUDIO
    TITLE "0:"
    INDEX 01 00:15:31
  TRACK 16 AUDIO
    TITLE "6:cjc165_1205"
    INDEX 01 00:16:03
  TRACK 17 AUDIO
    TITLE "0:"
    INDEX 01 00:17:34
  TRACK 18 AUDIO
    TITLE "5:cjc165_1206"
    INDEX 01 00:17:64
  TRACK 19 AUDIO
    TITLE "0:"
    INDEX 01 00:19:63
  TRACK 20 AUDIO
    TITLE "6:cjc165_1207"
    INDEX 01 00:20:37
  TRACK 21 AUDIO
    TITLE "0:"
    INDEX 01 00:21:67
  TRACK 22 AUDIO
    TITLE "5:cjc165_1208"
    INDEX 01 00:22:28
  TRACK 23 AUDIO
    TITLE "0:"
    INDEX 01 00:24:15
  TRACK 24 AUDIO
    TITLE "6:cjc165_1209"
    INDEX 01 00:24:66
  TRACK 25 AUDIO
    TITLE "0:"
    INDEX 01 00:26:21
  TRACK 26 AUDIO
    TITLE "5:cjc165_1210"
    INDEX 01 00:26:45
  TRACK 27 AUDIO
    TITLE "0:"
    INDEX 01 00:29:28
  TRACK 28 AUDIO
    TITLE "6:cjc165_1211"
    INDEX 01 00:30:13
  TRACK 29 AUDIO
    TITLE "0:"
    INDEX 01 00:31:52
  TRACK 30 AUDIO
    TITLE "5:cjc165_1212"
    INDEX 01 00:32:06
  TRACK 31 AUDIO
    TITLE "0:"
    INDEX 01 00:34:03
  TRACK 32 AUDIO
    TITLE "6:cjc165_1213"
    INDEX 01 00:34:62
  TRACK 33 AUDIO
    TITLE "0:"
    INDEX 01 00:35:75
  TRACK 34 AUDIO
    TITLE "5:cjc165_1214"
    INDEX 01 00:36:37
  TRACK 35 AUDIO
    TITLE "0:"
    INDEX 01 00:37:72
  TRACK 36 AUDIO
    TITLE "6:cjc165_1215"
    INDEX 01 00:38:46
  TRACK 37 AUDIO
    TITLE "0:"
    INDEX 01 00:40:08
  TRACK 38 AUDIO
    TITLE "5:cjc165_1216"
    INDEX 01 00:40:31
  TRACK 39 AUDIO
    TITLE "0:"
    INDEX 01 00:42:22
  TRACK 40 AUDIO
    TITLE "6:cjc165_1217"
    INDEX 01 00:43:04
  TRACK 41 AUDIO
    TITLE "0:"
    INDEX 01 00:44:33
  TRACK 42 AUDIO
    TITLE "5:cjc165_1218"
    INDEX 01 00:44:64
  TRACK 43 AUDIO
    TITLE "0:"
    INDEX 01 00:47:10
  TRACK 44 AUDIO
    TITLE "6:cjc165_1219"
    INDEX 01 00:47:67
  TRACK 45 AUDIO
    TITLE "0:"
    INDEX 01 00:49:24
  TRACK 46 AUDIO
    TITLE "5:cjc165_1220"
    INDEX 01 00:49:64
  TRACK 47 AUDIO
    TITLE "0:"
    INDEX 01 00:52:25
  TRACK 48 AUDIO
    TITLE "6:cjc165_1221"
    INDEX 01 00:53:09
  TRACK 49 AUDIO
    TITLE "0:"
    INDEX 01 00:54:31
  TRACK 50 AUDIO
    TITLE "5:cjc165_1222"
    INDEX 01 00:54:67
  TRACK 51 AUDIO
    TITLE "0:"
    INDEX 01 00:56:40
  TRACK 52 AUDIO
    TITLE "6:cjc165_1223"
    INDEX 01 00:57:20
  TRACK 53 AUDIO
    TITLE "0:"
    INDEX 01 00:58:70
  TRACK 54 AUDIO
    TITLE "5:cjc165_1224"
    INDEX 01 00:59:19
  TRACK 55 AUDIO
    TITLE "0:"
    INDEX 01 01:02:06
  TRACK 56 AUDIO
    TITLE "6:cjc165_1225"
    INDEX 01 01:02:56
  TRACK 57 AUDIO
    TITLE "0:"
    INDEX 01 01:04:32
  TRACK 58 AUDIO
    TITLE "5:cjc165_1226"
    INDEX 01 01:04:63
  TRACK 59 AUDIO
    TITLE "0:"
    INDEX 01 01:07:30
  TRACK 60 AUDIO
    TITLE "6:cjc165_1227"
    INDEX 01 01:08:16
  TRACK 61 AUDIO
    TITLE "0:"
    INDEX 01 01:09:66
  TRACK 62 AUDIO
    TITLE "5:cjc165_1228"
    INDEX 01 01:10:31
  TRACK 63 AUDIO
    TITLE "0:"
    INDEX 01 01:12:57
  TRACK 64 AUDIO
    TITLE "6:cjc165_1229"
    INDEX 01 01:13:43
  TRACK 65 AUDIO
    TITLE "0:"
    INDEX 01 01:15:18
  TRACK 66 AUDIO
    TITLE "5:cjc165_1230"
    INDEX 01 01:15:43
  TRACK 67 AUDIO
    TITLE "0:"
    INDEX 01 01:18:06
  TRACK 68 AUDIO
    TITLE "6:cjc165_1231"
    INDEX 01 01:18:63
  TRACK 69 AUDIO
    TITLE "0:"
    INDEX 01 01:20:45
  TRACK 70 AUDIO
    TITLE "5:cjc165_1232"
    INDEX 01 01:21:09
  TRACK 71 AUDIO
    TITLE "0:"
    INDEX 01 01:23:16
  TRACK 72 AUDIO
    TITLE "6:cjc165_1233"
    INDEX 01 01:24:01
  TRACK 73 AUDIO
    TITLE "0:"
    INDEX 01 01:25:42
  TRACK 74 AUDIO
    TITLE "5:cjc165_1234"
    INDEX 01 01:25:73
  TRACK 75 AUDIO
    TITLE "0:"
    INDEX 01 01:27:66
  TRACK 76 AUDIO
    TITLE "6:cjc165_1235"
    INDEX 01 01:28:46
  TRACK 77 AUDIO
    TITLE "0:"
    INDEX 01 01:30:21
  TRACK 78 AUDIO
    TITLE "5:cjc165_1236"
    INDEX 01 01:30:53
  TRACK 79 AUDIO
    TITLE "0:"
    INDEX 01 01:33:12
  TRACK 80 AUDIO
    TITLE "6:cjc165_1237"
    INDEX 01 01:33:61
  TRACK 81 AUDIO
    TITLE "0:"
    INDEX 01 01:35:15
  TRACK 82 AUDIO
    TITLE "5:cjc165_1238"
    INDEX 01 01:35:48
  TRACK 83 AUDIO
    TITLE "0:"
    INDEX 01 01:37:57
  TRACK 84 AUDIO
    TITLE "6:cjc165_1239"
    INDEX 01 01:38:37
  TRACK 85 AUDIO
    TITLE "0:"
    INDEX 01 01:40:12
  TRACK 86 AUDIO
    TITLE "5:cjc165_1240"
    INDEX 01 01:40:51
  TRACK 87 AUDIO
    TITLE "0:"
    INDEX 01 01:42:36
  TRACK 88 AUDIO
    TITLE "6:cjc165_1241"
    INDEX 01 01:43:08
  TRACK 89 AUDIO
    TITLE "0:"
    INDEX 01 01:44:63
  TRACK 90 AUDIO
    TITLE "5:cjc165_1242"
    INDEX 01 01:45:23
  TRACK 91 AUDIO
    TITLE "0:"
    INDEX 01 01:47:18
  TRACK 92 AUDIO
    TITLE "6:cjc165_1243"
    INDEX 01 01:47:65
  TRACK 93 AUDIO
    TITLE "0:"
    INDEX 01 01:49:42
  TRACK 94 AUDIO
    TITLE "5:cjc165_1244"
    INDEX 01 01:50:06
  TRACK 95 AUDIO
    TITLE "0:"
    INDEX 01 01:52:19
  TRACK 96 AUDIO
    TITLE "6:cjc165_1245"
    INDEX 01 01:52:72
  TRACK 97 AUDIO
    TITLE "0:"
    INDEX 01 01:54:53
  TRACK 98 AUDIO
    TITLE "5:cjc165_1246"
    INDEX 01 01:55:16
  TRACK 99 AUDIO
    TITLE "0:"
    INDEX 01 01:57:22
  TRACK 100 AUDIO
    TITLE "6:cjc165_1247"
    INDEX 01 01:57:75
  TRACK 101 AUDIO
    TITLE "0:"
    INDEX 01 01:59:54
  TRACK 102 AUDIO
    TITLE "5:cjc165_1248"
    INDEX 01 02:00:26
  TRACK 103 AUDIO
    TITLE "0:"
    INDEX 01 02:04:20
  TRACK 104 AUDIO
    TITLE "6:cjc165_1249"
    INDEX 01 02:04:69
  TRACK 105 AUDIO
    TITLE "0:"
    INDEX 01 02:06:54
  TRACK 106 AUDIO
    TITLE "5:cjc165_1250"
    INDEX 01 02:07:07
  TRACK 107 AUDIO
    TITLE "0:"
    INDEX 01 02:10:09
  TRACK 108 AUDIO
    TITLE "6:cjc165_1251"
    INDEX 01 02:10:58
  TRACK 109 AUDIO
    TITLE "0:"
    INDEX 01 02:12:41
  TRACK 110 AUDIO
    TITLE "5:cjc165_1252"
    INDEX 01 02:12:73
  TRACK 111 AUDIO
    TITLE "0:"
    INDEX 01 02:15:03
  TRACK 112 AUDIO
    TITLE "6:cjc165_1253"
    INDEX 01 02:15:59
  TRACK 113 AUDIO
    TITLE "0:"
    INDEX 01 02:17:21
  TRACK 114 AUDIO
    TITLE "5:cjc165_1254"
    INDEX 01 02:17:56
  TRACK 115 AUDIO
    TITLE "0:"
    INDEX 01 02:19:67
  TRACK 116 AUDIO
    TITLE "6:cjc165_1255"
    INDEX 01 02:20:49
  TRACK 117 AUDIO
    TITLE "0:"
    INDEX 01 02:22:28
  TRACK 118 AUDIO
    TITLE "5:cjc165_1256"
    INDEX 01 02:22:61
  TRACK 119 AUDIO
    TITLE "0:"
    INDEX 01 02:24:72
  TRACK 120 AUDIO
    TITLE "6:cjc165_1257"
    INDEX 01 02:25:52
  TRACK 121 AUDIO
    TITLE "0:"
    INDEX 01 02:27:06
  TRACK 122 AUDIO
    TITLE "5:cjc165_1258"
    INDEX 01 02:27:41
  TRACK 123 AUDIO
    TITLE "0:"
    INDEX 01 02:29:42
  TRACK 124 AUDIO
    TITLE "6:cjc165_1259"
    INDEX 01 02:30:24
  TRACK 125 AUDIO
    TITLE "0:"
    INDEX 01 02:32:01
  TRACK 126 AUDIO
    TITLE "5:cjc165_1260"
    INDEX 01 02:32:28
  TRACK 127 AUDIO
    TITLE "0:"
    INDEX 01 02:35:07
  TRACK 128 AUDIO
    TITLE "6:cjc165_1261"
    INDEX 01 02:35:58
  TRACK 129 AUDIO
    TITLE "0:"
    INDEX 01 02:37:35
  TRACK 130 AUDIO
    TITLE "5:cjc165_1262"
    INDEX 01 02:37:67
  TRACK 131 AUDIO
    TITLE "0:"
    INDEX 01 02:40:44
  TRACK 132 AUDIO
    TITLE "6:cjc165_1263"
    INDEX 01 02:41:22
  TRACK 133 AUDIO
    TITLE "0:"
    INDEX 01 02:43:03
  TRACK 134 AUDIO
    TITLE "5:cjc165_1264"
    INDEX 01 02:43:42
  TRACK 135 AUDIO
    TITLE "0:"
    INDEX 01 02:45:64
  TRACK 136 AUDIO
    TITLE "6:cjc165_1265"
    INDEX 01 02:46:34
  TRACK 137 AUDIO
    TITLE "0:"
    INDEX 01 02:48:14
  TRACK 138 AUDIO
    TITLE "5:cjc165_1266"
    INDEX 01 02:48:43
  TRACK 139 AUDIO
    TITLE "0:"
    INDEX 01 02:50:52
  TRACK 140 AUDIO
    TITLE "6:cjc165_1267"
    INDEX 01 02:51:40
  TRACK 141 AUDIO
    TITLE "0:"
    INDEX 01 02:53:15
  TRACK 142 AUDIO
    TITLE "5:cjc165_1268"
    INDEX 01 02:53:60
  TRACK 143 AUDIO
    TITLE "0:"
    INDEX 01 02:55:29
  TRACK 144 AUDIO
    TITLE "6:cjc165_1269"
    INDEX 01 02:56:07
  TRACK 145 AUDIO
    TITLE "0:"
    INDEX 01 02:57:64
  TRACK 146 AUDIO
    TITLE "5:cjc165_1270"
    INDEX 01 02:58:16
  TRACK 147 AUDIO
    TITLE "0:"
    INDEX 01 03:00:23
  TRACK 148 AUDIO
    TITLE "6:cjc165_1271"
    INDEX 01 03:01:09
  TRACK 149 AUDIO
    TITLE "0:"
    INDEX 01 03:02:65
  TRACK 150 AUDIO
    TITLE "5:cjc165_1272"
    INDEX 01 03:03:23
  TRACK 151 AUDIO
    TITLE "0:"
    INDEX 01 03:04:73
  TRACK 152 AUDIO
    TITLE "6:cjc165_1273"
    INDEX 01 03:05:45
  TRACK 153 AUDIO
    TITLE "0:"
    INDEX 01 03:07:05
  TRACK 154 AUDIO
    TITLE "5:cjc165_1274"
    INDEX 01 03:07:39
  TRACK 155 AUDIO
    TITLE "0:"
    INDEX 01 03:09:75
  TRACK 156 AUDIO
    TITLE "6:cjc165_1275"
    INDEX 01 03:10:60
  TRACK 157 AUDIO
    TITLE "0:"
    INDEX 01 03:12:38
  TRACK 158 AUDIO
    TITLE "5:cjc165_1276"
    INDEX 01 03:13:02
  TRACK 159 AUDIO
    TITLE "0:"
    INDEX 01 03:16:06
  TRACK 160 AUDIO
    TITLE "6:cjc165_1277"
    INDEX 01 03:16:55
  TRACK 161 AUDIO
    TITLE "0:"
    INDEX 01 03:18:13
  TRACK 162 AUDIO
    TITLE "5:cjc165_1278"
    INDEX 01 03:18:52
  TRACK 163 AUDIO
    TITLE "0:"
    INDEX 01 03:21:27
  TRACK 164 AUDIO
    TITLE "6:cjc165_1279"
    INDEX 01 03:21:74
  TRACK 165 AUDIO
    TITLE "0:"
    INDEX 01 03:23:51
  TRACK 166 AUDIO
    TITLE "5:cjc165_1280"
    INDEX 01 03:23:63
  TRACK 167 AUDIO
    TITLE "0:"
    INDEX 01 03:26:10
  TRACK 168 AUDIO
    TITLE "6:cjc165_1281"
    INDEX 01 03:26:73
  TRACK 169 AUDIO
    TITLE "0:"
    INDEX 01 03:28:52
  TRACK 170 AUDIO
    TITLE "5:cjc165_1282"
    INDEX 01 03:29:13
  TRACK 171 AUDIO
    TITLE "0:"
    INDEX 01 03:31:41
  TRACK 172 AUDIO
    TITLE "6:cjc165_1283"
    INDEX 01 03:32:25
  TRACK 173 AUDIO
    TITLE "0:"
    INDEX 01 03:34:06
  TRACK 174 AUDIO
    TITLE "5:cjc165_1284"
    INDEX 01 03:34:45
  TRACK 175 AUDIO
    TITLE "0:"
    INDEX 01 03:37:36
  TRACK 176 AUDIO
    TITLE "6:cjc165_1285"
    INDEX 01 03:38:21
  TRACK 177 AUDIO
    TITLE "0:"
    INDEX 01 03:39:72
  TRACK 178 AUDIO
    TITLE "5:cjc165_1286"
    INDEX 01 03:40:22
  TRACK 179 AUDIO
    TITLE "0:"
    INDEX 01 03:42:51
  TRACK 180 AUDIO
    TITLE "6:cjc165_1287"
    INDEX 01 03:43:30
  TRACK 181 AUDIO
    TITLE "0:"
    INDEX 01 03:45:04
  TRACK 182 AUDIO
    TITLE "5:cjc165_1288"
    INDEX 01 03:45:33
  TRACK 183 AUDIO
    TITLE "0:"
    INDEX 01 03:47:67
  TRACK 184 AUDIO
    TITLE "6:cjc165_1289"
    INDEX 01 03:48:47
  TRACK 185 AUDIO
    TITLE "0:"
    INDEX 01 03:50:31
  TRACK 186 AUDIO
    TITLE "5:cjc165_1290"
    INDEX 01 03:50:46
  TRACK 187 AUDIO
    TITLE "0:"
    INDEX 01 03:53:33
  TRACK 188 AUDIO
    TITLE "6:cjc165_1291"
    INDEX 01 03:54:11
  TRACK 189 AUDIO
    TITLE "0:"
    INDEX 01 03:55:65
  TRACK 190 AUDIO
    TITLE "5:cjc165_1292"
    INDEX 01 03:56:23
  TRACK 191 AUDIO
    TITLE "0:"
    INDEX 01 03:57:68
  TRACK 192 AUDIO
    TITLE "6:cjc165_1293"
    INDEX 01 03:58:52
  TRACK 193 AUDIO
    TITLE "0:"
    INDEX 01 04:00:15
  TRACK 194 AUDIO
    TITLE "5:cjc165_1294"
    INDEX 01 04:00:48
  TRACK 195 AUDIO
    TITLE "0:"
    INDEX 01 04:02:06
  TRACK 196 AUDIO
    TITLE "6:cjc165_1295"
    INDEX 01 04:02:55
  TRACK 197 AUDIO
    TITLE "0:"
    INDEX 01 04:04:27
  TRACK 198 AUDIO
    TITLE "5:cjc165_1296"
    INDEX 01 04:04:60
  TRACK 199 AUDIO
    TITLE "0:"
    INDEX 01 04:07:37
  TRACK 200 AUDIO
    TITLE "6:cjc165_1297"
    INDEX 01 04:08:19
  TRACK 201 AUDIO
    TITLE "0:"
    INDEX 01 04:09:53
  TRACK 202 AUDIO
    TITLE "5:cjc165_1298"
    INDEX 01 04:09:73
  TRACK 203 AUDIO
    TITLE "0:"
    INDEX 01 04:11:52
  TRACK 204 AUDIO
    TITLE "6:cjc165_1299"
    INDEX 01 04:12:28
  TRACK 205 AUDIO
    TITLE "0:"
    INDEX 01 04:14:06
  TRACK 206 AUDIO
    TITLE "5:cjc165_1300"
    INDEX 01 04:14:29
  TRACK 207 AUDIO
    TITLE "0:"
    INDEX 01 04:16:61
  TRACK 208 AUDIO
    TITLE "6:cjc165_1301"
    INDEX 01 04:17:43
  TRACK 209 AUDIO
    TITLE "0:"
    INDEX 01 04:19:22
  TRACK 210 AUDIO
    TITLE "5:cjc165_1302"
    INDEX 01 04:19:48
  TRACK 211 AUDIO
    TITLE "0:"
    INDEX 01 04:22:17
  TRACK 212 AUDIO
    TITLE "6:cjc165_1303"
    INDEX 01 04:23:03
  TRACK 213 AUDIO
    TITLE "0:"
    INDEX 01 04:24:61
  TRACK 214 AUDIO
    TITLE "5:cjc165_1304"
    INDEX 01 04:25:25
  TRACK 215 AUDIO
    TITLE "0:"
    INDEX 01 04:27:51
  TRACK 216 AUDIO
    TITLE "6:cjc165_1305"
    INDEX 01 04:28:27
  TRACK 217 AUDIO
    TITLE "0:"
    INDEX 01 04:30:12
  TRACK 218 AUDIO
    TITLE "5:cjc165_1306"
    INDEX 01 04:30:40
  TRACK 219 AUDIO
    TITLE "0:"
    INDEX 01 04:32:48
  TRACK 220 AUDIO
    TITLE "6:cjc165_1307"
    INDEX 01 04:33:22
  TRACK 221 AUDIO
    TITLE "0:"
    INDEX 01 04:34:75
  TRACK 222 AUDIO
    TITLE "5:cjc165_1308"
    INDEX 01 04:35:27
  TRACK 223 AUDIO
    TITLE "0:"
    INDEX 01 04:38:63
  TRACK 224 AUDIO
    TITLE "6:cjc165_1309"
    INDEX 01 04:39:41
  TRACK 225 AUDIO
    TITLE "0:"
    INDEX 01 04:41:24
  TRACK 226 AUDIO
    TITLE "5:cjc165_1310"
    INDEX 01 04:41:53
  TRACK 227 AUDIO
    TITLE "0:"
    INDEX 01 04:43:42
  TRACK 228 AUDIO
    TITLE "6:cjc165_1311"
    INDEX 01 04:44:18
  TRACK 229 AUDIO
    TITLE "0:"
    INDEX 01 04:46:04
  TRACK 230 AUDIO
    TITLE "5:cjc165_1312"
    INDEX 01 04:46:35
  TRACK 231 AUDIO
    TITLE "0:"
    INDEX 01 04:48:48
